<svg xmlns="http://www.w3.org/2000/svg" width="30.828" height="29.828" viewBox="0 0 30.828 29.828">
  <g id="Group_42" data-name="Group 42" transform="translate(-476.086 -1319.086)">
    <g id="Group_41" data-name="Group 41" transform="translate(-360 607)">
      <path id="Path_8" data-name="Path 8" d="M298.332,512.708a8.359,8.359,0,0,1-4.467-7.161c-.285-5.557-3.064-9.547-6.7-9.547s-6.412,3.99-6.7,9.547A8.359,8.359,0,0,1,276,512.708a.7.7,0,0,0,.32,1.317h7.105c.023,1.7,1.688,3.064,3.74,3.064s3.716-1.369,3.739-3.064h7.105a.7.7,0,0,0,.32-1.317Z" transform="translate(563.833 219.06)" fill="#f2f0c9"/>
    </g>
    <line id="Line_49" data-name="Line 49" x2="28" y2="27" transform="translate(477.5 1320.5)" fill="none" stroke="#f2f0c9" stroke-linecap="round" stroke-width="2"/>
  </g>
</svg>
