<svg xmlns="http://www.w3.org/2000/svg" width="34.255" height="29" viewBox="0 0 34.255 29">
  <g id="Group_13" data-name="Group 13" transform="translate(-935.5 -474.5)">
    <g id="Group_4" data-name="Group 4" transform="translate(943.674 474.889)">
      <path id="Path_10" data-name="Path 10" d="M981.218,478.225H957.862a1.362,1.362,0,0,1,0-2.725h23.356a1.362,1.362,0,0,1,0,2.725Z" transform="translate(-956.5 -475.5)" fill="#f2f0c9"/>
    </g>
    <g id="Group_5" data-name="Group 5" transform="translate(943.674 487.554)">
      <path id="Path_11" data-name="Path 11" d="M981.218,510.76H957.862a1.362,1.362,0,0,1,0-2.725h23.356a1.362,1.362,0,0,1,0,2.725Z" transform="translate(-956.5 -508.035)" fill="#f2f0c9"/>
    </g>
    <g id="Group_6" data-name="Group 6" transform="translate(943.674 500.581)">
      <path id="Path_12" data-name="Path 12" d="M981.218,544.225H957.862a1.362,1.362,0,0,1,0-2.725h23.356a1.362,1.362,0,0,1,0,2.725Z" transform="translate(-956.5 -541.5)" fill="#f2f0c9"/>
    </g>
    <g id="Group_7" data-name="Group 7" transform="translate(935.5 474.5)">
      <circle id="Ellipse_7" data-name="Ellipse 7" cx="1.557" cy="1.557" r="1.557" fill="#f2f0c9"/>
    </g>
    <g id="Group_8" data-name="Group 8" transform="translate(935.695 487.54)">
      <circle id="Ellipse_8" data-name="Ellipse 8" cx="1.557" cy="1.557" r="1.557" transform="translate(0 0)" fill="#f2f0c9"/>
    </g>
    <g id="Group_9" data-name="Group 9" transform="translate(935.695 500.386)">
      <circle id="Ellipse_9" data-name="Ellipse 9" cx="1.557" cy="1.557" r="1.557" transform="translate(0 0)" fill="#f2f0c9"/>
    </g>
  </g>
</svg>

